<svg xmlns="http://www.w3.org/2000/svg" xmlns:xlink="http://www.w3.org/1999/xlink" preserveAspectRatio="xMidYMid" width="304" height="64" viewBox="0 0 304 64">
  <defs>
    <style>
      .cls-1 {
        fill: #000;
      }

      .cls-1, .cls-2, .cls-3 {
        fill-rule: evenodd;
      }

      .cls-2 {
        fill: #2196f3;
      }

      .cls-3 {
        fill: #fff;
      }
    </style>
  </defs>
  <path d="M302.441,51.921 C301.554,53.903 300.361,55.631 298.862,57.108 C297.363,58.583 295.600,59.743 293.573,60.587 C291.546,61.430 289.393,61.852 287.113,61.852 L287.113,53.123 C288.168,53.123 289.171,52.923 290.121,52.522 C291.071,52.121 291.895,51.584 292.592,50.910 C293.288,50.235 293.858,49.444 294.302,48.538 C294.745,47.630 294.988,46.651 295.030,45.597 C293.805,46.188 292.528,46.662 291.198,47.020 C289.868,47.378 288.484,47.557 287.049,47.557 C284.726,47.557 282.541,47.125 280.493,46.261 C278.445,45.397 276.661,44.205 275.141,42.687 C273.621,41.169 272.406,39.388 271.499,37.343 C270.590,35.298 270.137,33.116 270.137,30.796 C270.137,28.478 270.570,26.296 271.436,24.250 C272.301,22.205 273.494,20.423 275.014,18.906 C276.535,17.388 278.308,16.186 280.335,15.300 C282.362,14.415 284.536,13.972 286.859,13.972 C289.181,13.972 291.377,14.405 293.447,15.269 C295.515,16.133 297.310,17.324 298.831,18.842 C300.351,20.360 301.564,22.142 302.473,24.187 C303.380,26.233 303.835,28.415 303.835,30.733 L303.835,45.597 C303.792,47.831 303.328,49.939 302.441,51.921 ZM294.270,27.634 C293.848,26.664 293.277,25.821 292.560,25.104 C291.841,24.387 290.997,23.829 290.026,23.428 C289.054,23.028 287.999,22.827 286.859,22.827 C285.761,22.827 284.737,23.038 283.787,23.459 C282.837,23.881 282.003,24.451 281.285,25.167 C280.567,25.885 280.007,26.728 279.607,27.697 C279.205,28.668 279.005,29.700 279.005,30.796 C279.005,31.893 279.216,32.926 279.638,33.896 C280.060,34.866 280.630,35.709 281.348,36.425 C282.066,37.143 282.910,37.712 283.882,38.133 C284.853,38.555 285.887,38.766 286.986,38.766 C288.083,38.766 289.118,38.555 290.090,38.133 C291.060,37.712 291.905,37.132 292.623,36.394 C293.341,35.657 293.911,34.803 294.333,33.832 C294.755,32.863 294.945,31.830 294.904,30.733 C294.904,29.637 294.692,28.604 294.270,27.634 ZM259.908,42.624 C258.409,44.142 256.646,45.344 254.619,46.229 C252.592,47.115 250.417,47.557 248.095,47.557 C245.730,47.557 243.524,47.125 241.476,46.261 C239.427,45.397 237.633,44.205 236.092,42.687 C234.550,41.169 233.337,39.398 232.450,37.374 C231.563,35.350 231.120,33.179 231.120,30.860 C231.120,28.541 231.552,26.348 232.418,24.282 C233.283,22.216 234.477,20.423 235.997,18.906 C237.517,17.388 239.291,16.186 241.318,15.300 C243.345,14.415 245.519,13.972 247.842,13.972 C250.164,13.972 252.349,14.405 254.398,15.269 C256.445,16.133 258.230,17.324 259.750,18.842 C261.270,20.360 262.474,22.131 263.360,24.155 C264.247,26.179 264.691,28.351 264.691,30.670 C264.732,33.032 264.320,35.235 263.455,37.279 C262.589,39.325 261.407,41.106 259.908,42.624 ZM255.253,27.602 C254.830,26.654 254.249,25.821 253.511,25.104 C252.772,24.387 251.916,23.829 250.946,23.428 C249.974,23.028 248.939,22.827 247.842,22.827 C246.743,22.827 245.720,23.038 244.770,23.459 C243.820,23.881 242.985,24.462 242.268,25.199 C241.549,25.937 240.979,26.791 240.558,27.760 C240.135,28.731 239.924,29.764 239.924,30.860 C239.924,31.957 240.135,32.978 240.558,33.927 C240.979,34.876 241.549,35.709 242.268,36.425 C242.985,37.143 243.830,37.701 244.801,38.102 C245.772,38.503 246.807,38.702 247.905,38.702 C249.003,38.702 250.037,38.492 251.009,38.070 C251.980,37.649 252.824,37.080 253.543,36.362 C254.260,35.646 254.830,34.792 255.253,33.801 C255.674,32.810 255.886,31.767 255.886,30.670 C255.886,29.574 255.674,28.551 255.253,27.602 ZM218.452,47.557 L209.585,47.557 L209.585,22.005 C209.585,19.686 210.017,17.504 210.883,15.458 C211.748,13.414 212.942,11.622 214.462,10.082 C215.982,8.544 217.766,7.331 219.814,6.445 C221.862,5.560 224.047,5.117 226.370,5.117 L228.460,5.117 L228.460,14.035 L226.433,14.035 C225.335,14.035 224.301,14.247 223.330,14.668 C222.358,15.090 221.514,15.659 220.796,16.376 C220.078,17.093 219.507,17.936 219.086,18.906 C218.663,19.876 218.452,20.909 218.452,22.005 L218.452,22.827 L228.460,22.827 L228.460,31.619 L218.452,31.619 L218.452,47.557 ZM193.180,30.796 C193.180,29.658 192.979,28.604 192.579,27.634 C192.177,26.664 191.618,25.821 190.900,25.104 C190.182,24.387 189.337,23.829 188.366,23.428 C187.395,23.028 186.340,22.827 185.199,22.827 C184.101,22.827 183.077,23.028 182.127,23.428 C181.177,23.829 180.343,24.387 179.625,25.104 C178.907,25.821 178.348,26.664 177.947,27.634 C177.545,28.604 177.345,29.658 177.345,30.796 L177.345,47.557 L168.414,47.557 L168.414,30.796 C168.414,28.478 168.857,26.296 169.744,24.250 C170.631,22.205 171.834,20.423 173.355,18.906 C174.875,17.388 176.648,16.186 178.675,15.300 C180.702,14.415 182.856,13.972 185.136,13.972 C187.458,13.972 189.643,14.405 191.692,15.269 C193.740,16.133 195.534,17.324 197.076,18.842 C198.617,20.360 199.841,22.153 200.750,24.218 C201.657,26.285 202.111,28.478 202.111,30.796 L202.111,47.557 L193.180,47.557 L193.180,30.796 ZM152.072,30.796 C152.072,29.700 151.871,28.668 151.471,27.697 C151.069,26.728 150.510,25.885 149.792,25.167 C149.074,24.451 148.240,23.881 147.290,23.459 C146.340,23.038 145.316,22.827 144.218,22.827 L144.218,13.972 C146.498,13.972 148.662,14.415 150.711,15.300 C152.758,16.186 154.543,17.388 156.063,18.906 C157.583,20.423 158.776,22.205 159.642,24.250 C160.507,26.296 160.940,28.478 160.940,30.796 L160.940,47.557 L152.072,47.557 L152.072,30.796 ZM157.805,15.016 C157.023,14.362 156.158,13.793 155.208,13.308 C154.258,12.824 153.254,12.517 152.199,12.391 L152.199,5.117 L160.940,5.117 L160.940,19.222 C160.728,18.589 160.348,17.894 159.800,17.135 C159.251,16.376 158.586,15.670 157.805,15.016 ZM133.546,42.687 C132.216,44.205 130.611,45.397 128.732,46.261 C126.853,47.125 124.774,47.557 122.493,47.557 C120.720,47.557 119.009,47.146 117.363,46.324 C115.716,45.502 114.174,44.543 112.739,43.446 C111.472,44.543 110.036,45.502 108.431,46.324 C106.826,47.146 105.032,47.557 103.047,47.557 C100.894,47.557 98.940,47.178 97.188,46.419 C95.436,45.660 93.905,44.606 92.596,43.256 C91.287,41.907 90.221,40.326 89.397,38.513 C88.574,36.700 88.056,34.739 87.846,32.631 C87.803,32.378 87.782,32.115 87.782,31.840 C87.782,31.566 87.782,31.261 87.782,30.923 L87.782,13.972 L96.713,13.972 L96.713,30.796 C96.713,31.851 96.850,32.852 97.125,33.801 C97.399,34.749 97.790,35.593 98.297,36.331 C98.804,37.069 99.437,37.649 100.197,38.070 C100.957,38.492 101.822,38.702 102.794,38.702 C104.568,38.702 105.939,37.986 106.911,36.552 C107.882,35.119 108.389,33.242 108.431,30.923 L108.431,13.972 L117.299,13.972 L117.299,30.796 C117.299,33.200 117.774,35.119 118.724,36.552 C119.675,37.986 121.057,38.702 122.873,38.702 C123.802,38.702 124.636,38.492 125.375,38.070 C126.114,37.649 126.747,37.090 127.275,36.394 C127.803,35.698 128.215,34.876 128.511,33.927 C128.806,32.978 128.954,31.957 128.954,30.860 L128.954,13.972 L137.758,13.972 L137.758,30.923 C137.758,33.200 137.388,35.350 136.650,37.374 C135.911,39.398 134.876,41.169 133.546,42.687 ZM75.336,46.229 C73.288,45.344 71.504,44.142 69.984,42.624 C68.464,41.106 67.270,39.325 66.405,37.279 C65.539,35.235 65.107,33.053 65.107,30.733 L65.107,5.117 L73.974,5.117 L73.974,13.972 L83.856,13.972 L83.856,22.827 L73.974,22.827 L73.974,30.733 C73.974,31.830 74.174,32.863 74.576,33.832 C74.977,34.803 75.536,35.646 76.255,36.362 C76.972,37.080 77.816,37.649 78.788,38.070 C79.759,38.492 80.794,38.702 81.892,38.702 L83.856,38.702 L83.856,47.557 L81.892,47.557 C79.569,47.557 77.384,47.115 75.336,46.229 Z" class="cls-1"/>
  <g>
    <path d="M22.851,2.388 L9.944,6.884 L4.519,14.564 L2.835,25.241 L6.764,36.855 L14.433,42.099 L25.470,44.160 L32.952,42.661 L38.751,43.973 L44.363,45.658 L41.557,35.169 L45.111,22.806 L38.751,8.195 L29.585,2.950 L22.851,2.388 Z" class="cls-2"/>
    <path d="M34.078,39.680 L41.582,42.071 L39.132,34.836 C41.613,31.421 42.853,27.612 42.853,23.410 C42.853,20.782 42.337,18.261 41.303,15.850 C40.269,13.439 38.884,11.363 37.148,9.624 C35.412,7.886 33.339,6.499 30.931,5.464 C28.523,4.429 26.006,3.911 23.381,3.911 C20.756,3.911 18.239,4.429 15.831,5.464 C13.423,6.499 11.350,7.886 9.614,9.624 C7.877,11.363 6.493,13.439 5.459,15.850 C4.425,18.261 3.908,20.782 3.908,23.410 C3.908,26.039 4.425,28.559 5.459,30.971 C6.493,33.382 7.877,35.457 9.614,37.196 C11.350,38.935 13.423,40.322 15.831,41.357 C18.239,42.392 20.756,42.909 23.381,42.909 C27.247,42.909 30.812,41.833 34.078,39.680 L34.078,39.680 ZM39.908,6.861 C41.996,8.952 43.659,11.441 44.900,14.328 C46.140,17.216 46.760,20.243 46.760,23.410 C46.760,27.778 45.644,31.804 43.411,35.488 L47.628,48.063 L34.698,43.903 C31.184,45.848 27.412,46.821 23.381,46.821 C20.218,46.821 17.195,46.200 14.311,44.958 C11.428,43.716 8.942,42.050 6.854,39.959 C4.766,37.869 3.102,35.380 1.862,32.492 C0.622,29.604 0.002,26.577 0.002,23.410 C0.002,20.243 0.622,17.216 1.862,14.328 C3.102,11.441 4.766,8.952 6.854,6.861 C8.942,4.770 11.428,3.104 14.311,1.862 C17.195,0.620 20.218,-0.001 23.381,-0.001 C26.544,-0.001 29.567,0.620 32.450,1.862 C35.334,3.104 37.820,4.770 39.908,6.861 Z" class="cls-2"/>
    <path d="M18.964,9.595 C17.559,10.232 16.349,11.085 15.333,12.156 C14.317,13.226 13.508,14.483 12.908,15.924 C12.307,17.367 12.007,18.866 12.007,20.423 C12.007,22.493 12.537,24.696 13.597,27.031 C14.321,28.305 15.165,29.615 16.128,30.959 C17.091,32.304 17.961,33.437 18.739,34.356 C19.516,35.277 20.320,36.188 21.151,37.090 C21.981,37.992 22.542,38.589 22.834,38.881 C23.125,39.173 23.350,39.390 23.509,39.532 L24.941,37.886 C25.895,36.772 27.158,35.184 28.731,33.122 C30.303,31.061 31.699,29.066 32.918,27.138 C34.155,24.608 34.774,22.325 34.774,20.290 C34.774,18.220 34.265,16.292 33.250,14.505 C32.233,12.718 30.851,11.293 29.102,10.232 C27.352,9.170 25.444,8.639 23.377,8.639 C21.840,8.639 20.369,8.958 18.964,9.595 ZM29.367,19.706 C29.367,21.334 28.792,22.719 27.644,23.860 C26.495,25.001 25.113,25.572 23.496,25.572 C21.879,25.572 20.497,25.001 19.348,23.860 C18.200,22.719 17.626,21.334 17.626,19.706 C17.626,18.079 18.200,16.690 19.348,15.540 C20.497,14.390 21.879,13.815 23.496,13.815 C25.113,13.815 26.495,14.390 27.644,15.540 C28.792,16.690 29.367,18.079 29.367,19.706 Z" class="cls-3"/>
  </g>
  <path d="M259.114,63.578 L259.114,62.377 C258.319,63.335 257.362,63.814 256.244,63.814 C254.931,63.814 253.914,63.348 253.195,62.415 C252.475,61.481 252.115,60.224 252.115,58.641 C252.115,57.002 252.517,55.704 253.323,54.749 C254.128,53.794 255.139,53.316 256.358,53.316 C257.444,53.316 258.363,53.650 259.114,54.319 L259.114,49.713 L260.895,49.713 L260.895,63.578 L259.114,63.578 ZM259.114,55.927 C258.344,55.113 257.463,54.706 256.472,54.706 C255.708,54.706 255.097,55.036 254.639,55.695 C254.181,56.354 253.952,57.336 253.952,58.641 C253.952,59.877 254.169,60.815 254.601,61.455 C255.034,62.095 255.632,62.415 256.396,62.415 C257.394,62.415 258.300,61.841 259.114,60.693 L259.114,55.927 ZM248.364,57.090 C248.364,56.270 248.217,55.681 247.924,55.321 C247.630,54.962 247.149,54.782 246.479,54.782 C245.570,54.782 244.661,55.318 243.752,56.390 L243.752,63.578 L241.961,63.578 L241.961,53.543 L243.752,53.543 L243.752,54.820 C244.642,53.817 245.643,53.316 246.754,53.316 C249.021,53.316 250.154,54.549 250.154,57.014 L250.154,63.578 L248.364,63.578 L248.364,57.090 ZM237.538,62.301 C236.648,63.310 235.647,63.814 234.536,63.814 C232.269,63.814 231.136,62.579 231.136,60.107 L231.136,53.543 L232.926,53.543 L232.926,60.031 C232.926,60.851 233.071,61.440 233.361,61.800 C233.652,62.159 234.132,62.339 234.801,62.339 C235.799,62.339 236.711,61.803 237.538,60.731 L237.538,53.543 L239.319,53.543 L239.319,63.578 L237.538,63.578 L237.538,62.301 ZM224.458,63.814 C223.031,63.814 221.890,63.356 221.034,62.438 C220.178,61.521 219.751,60.230 219.751,58.565 C219.751,56.894 220.178,55.602 221.034,54.688 C221.890,53.773 223.031,53.316 224.458,53.316 C225.891,53.316 227.036,53.773 227.892,54.688 C228.747,55.602 229.175,56.894 229.175,58.565 C229.175,60.230 228.747,61.521 227.892,62.438 C227.036,63.356 225.891,63.814 224.458,63.814 ZM226.532,55.676 C226.002,55.030 225.311,54.706 224.458,54.706 C223.606,54.706 222.914,55.030 222.384,55.676 C221.853,56.322 221.588,57.285 221.588,58.565 C221.588,59.839 221.853,60.799 222.384,61.445 C222.914,62.091 223.606,62.415 224.458,62.415 C225.311,62.415 226.002,62.091 226.532,61.445 C227.063,60.799 227.328,59.839 227.328,58.565 C227.328,57.285 227.063,56.322 226.532,55.676 ZM218.055,55.056 C217.146,55.056 216.366,55.533 215.716,56.485 L215.716,63.578 L213.926,63.578 L213.926,53.543 L215.716,53.543 L215.716,54.943 C216.467,53.859 217.339,53.316 218.330,53.316 C218.583,53.316 218.854,53.341 219.145,53.392 L219.145,55.170 C218.892,55.094 218.529,55.056 218.055,55.056 ZM209.503,62.547 C208.593,63.392 207.422,63.814 205.989,63.814 C204.991,63.814 204.170,63.545 203.526,63.006 C202.882,62.467 202.560,61.771 202.560,60.920 C202.560,58.575 204.584,57.402 208.631,57.402 L209.503,57.402 C209.503,56.683 209.465,56.161 209.389,55.837 C209.313,55.512 209.102,55.242 208.754,55.028 C208.407,54.814 207.855,54.706 207.097,54.706 C205.506,54.706 204.685,55.274 204.634,56.409 L202.854,56.409 C202.986,54.347 204.432,53.316 207.192,53.316 C208.480,53.316 209.484,53.572 210.204,54.082 C210.923,54.593 211.283,55.595 211.283,57.090 L211.283,63.578 L209.503,63.578 L209.503,62.547 ZM209.503,58.717 L208.281,58.717 C205.692,58.717 204.398,59.420 204.398,60.826 C204.398,61.336 204.587,61.729 204.966,62.003 C205.345,62.277 205.856,62.415 206.500,62.415 C207.087,62.415 207.656,62.282 208.205,62.017 C208.754,61.752 209.187,61.393 209.503,60.939 L209.503,58.717 ZM194.462,63.578 L191.194,58.480 L190.077,59.587 L190.077,63.578 L188.286,63.578 L188.286,49.713 L190.077,49.713 L190.077,57.572 L193.950,53.543 L196.205,53.543 L192.397,57.279 L196.593,63.578 L194.462,63.578 ZM182.618,57.586 C183.833,57.880 184.736,58.222 185.327,58.612 C185.917,59.004 186.212,59.678 186.212,60.636 C186.212,61.551 185.848,62.309 185.118,62.911 C184.389,63.513 183.409,63.814 182.177,63.814 C179.431,63.814 177.994,62.736 177.868,60.580 L179.658,60.580 C179.671,61.803 180.504,62.415 182.158,62.415 C182.897,62.415 183.461,62.262 183.849,61.956 C184.237,61.650 184.432,61.267 184.432,60.807 C184.432,60.353 184.242,60.033 183.863,59.847 C183.484,59.661 182.703,59.420 181.519,59.123 C180.335,58.827 179.470,58.496 178.924,58.130 C178.378,57.765 178.105,57.121 178.105,56.201 C178.105,55.369 178.444,54.680 179.123,54.134 C179.802,53.589 180.709,53.316 181.846,53.316 C184.479,53.316 185.824,54.253 185.881,56.125 L184.100,56.125 C184.037,55.179 183.327,54.706 181.969,54.706 C181.369,54.706 180.872,54.820 180.477,55.047 C180.083,55.274 179.885,55.605 179.885,56.040 C179.885,56.431 180.037,56.713 180.340,56.886 C180.643,57.060 181.402,57.293 182.618,57.586 ZM174.164,62.547 C173.255,63.392 172.084,63.814 170.651,63.814 C169.653,63.814 168.832,63.545 168.188,63.006 C167.544,62.467 167.222,61.771 167.222,60.920 C167.222,58.575 169.246,57.402 173.293,57.402 L174.164,57.402 C174.164,56.683 174.127,56.161 174.051,55.837 C173.975,55.512 173.763,55.242 173.416,55.028 C173.069,54.814 172.516,54.706 171.759,54.706 C170.168,54.706 169.347,55.274 169.296,56.409 L167.516,56.409 C167.648,54.347 169.094,53.316 171.853,53.316 C173.142,53.316 174.146,53.572 174.865,54.082 C175.585,54.593 175.945,55.595 175.945,57.090 L175.945,63.578 L174.164,63.578 L174.164,62.547 ZM174.164,58.717 L172.943,58.717 C170.354,58.717 169.059,59.420 169.059,60.826 C169.059,61.336 169.249,61.729 169.628,62.003 C170.006,62.277 170.518,62.415 171.162,62.415 C171.749,62.415 172.318,62.282 172.867,62.017 C173.416,61.752 173.849,61.393 174.164,60.939 L174.164,58.717 Z" class="cls-2"/>
</svg>
